<svg width="20" height="20" viewBox="0 0 20 20" fill="none" xmlns="http://www.w3.org/2000/svg">
<path d="M13.3334 3.33334C14.1084 3.33334 14.4958 3.33334 14.8138 3.41852C15.6765 3.64969 16.3504 4.32356 16.5815 5.18629C16.6667 5.50421 16.6667 5.8917 16.6667 6.66667V14.3333C16.6667 15.7335 16.6667 16.4335 16.3942 16.9683C16.1545 17.4387 15.7721 17.8212 15.3017 18.0609C14.7669 18.3333 14.0668 18.3333 12.6667 18.3333H7.33337C5.93324 18.3333 5.23318 18.3333 4.6984 18.0609C4.22799 17.8212 3.84554 17.4387 3.60586 16.9683C3.33337 16.4335 3.33337 15.7335 3.33337 14.3333V6.66667C3.33337 5.8917 3.33337 5.50421 3.41856 5.18629C3.64973 4.32356 4.3236 3.64969 5.18633 3.41852C5.50424 3.33334 5.89173 3.33334 6.66671 3.33334M8.00004 5.00001H12C12.4668 5.00001 12.7001 5.00001 12.8784 4.90918C13.0352 4.82928 13.1627 4.7018 13.2425 4.545C13.3334 4.36674 13.3334 4.13338 13.3334 3.66667V3.00001C13.3334 2.53329 13.3334 2.29994 13.2425 2.12168C13.1627 1.96488 13.0352 1.83739 12.8784 1.7575C12.7001 1.66667 12.4668 1.66667 12 1.66667H8.00004C7.53333 1.66667 7.29997 1.66667 7.12172 1.7575C6.96491 1.83739 6.83743 1.96488 6.75754 2.12168C6.66671 2.29994 6.66671 2.53329 6.66671 3.00001V3.66667C6.66671 4.13338 6.66671 4.36674 6.75754 4.545C6.83743 4.7018 6.96491 4.82928 7.12172 4.90918C7.29997 5.00001 7.53333 5.00001 8.00004 5.00001Z" stroke="white" stroke-width="1.66667" stroke-linecap="round" stroke-linejoin="round"/>
</svg>
