<svg width="56" height="56" viewBox="0 0 56 56" fill="none" xmlns="http://www.w3.org/2000/svg">
<rect x="4" y="4" width="48" height="48" rx="24" fill="#F4EBFF"/>
<rect x="4" y="4" width="48" height="48" rx="24" stroke="#F9F5FF" stroke-width="8"/>
<path d="M18 28H38M18 28C18 33.5228 22.4772 38 28 38M18 28C18 22.4772 22.4772 18 28 18M38 28C38 33.5228 33.5228 38 28 38M38 28C38 22.4772 33.5228 18 28 18M28 18C30.5013 20.7384 31.9228 24.292 32 28C31.9228 31.708 30.5013 35.2616 28 38M28 18C25.4987 20.7384 24.0772 24.292 24 28C24.0772 31.708 25.4987 35.2616 28 38" stroke="#7F56D9" stroke-width="2" stroke-linecap="round" stroke-linejoin="round"/>
</svg>
