<svg width="24" height="24" viewBox="0 0 24 24" fill="none" xmlns="http://www.w3.org/2000/svg">
<path d="M12 4.8C10.0904 4.8 8.25909 5.55857 6.90883 6.90883C5.55857 8.25909 4.8 10.0904 4.8 12H7.5C7.97739 12 8.43523 12.1896 8.77279 12.5272C9.11036 12.8648 9.3 13.3226 9.3 13.8V18.3C9.3 18.7774 9.11036 19.2352 8.77279 19.5728C8.43523 19.9104 7.97739 20.1 7.5 20.1H4.8C4.32261 20.1 3.86477 19.9104 3.52721 19.5728C3.18964 19.2352 3 18.7774 3 18.3V12C3 7.0293 7.0293 3 12 3C16.9707 3 21 7.0293 21 12V18.3C21 18.7774 20.8104 19.2352 20.4728 19.5728C20.1352 19.9104 19.6774 20.1 19.2 20.1H16.5C16.0226 20.1 15.5648 19.9104 15.2272 19.5728C14.8896 19.2352 14.7 18.7774 14.7 18.3V13.8C14.7 13.3226 14.8896 12.8648 15.2272 12.5272C15.5648 12.1896 16.0226 12 16.5 12H19.2C19.2 10.0904 18.4414 8.25909 17.0912 6.90883C15.7409 5.55857 13.9096 4.8 12 4.8V4.8ZM4.8 13.8V18.3H7.5V13.8H4.8ZM16.5 13.8V18.3H19.2V13.8H16.5Z" fill="#0A0D14"/>
</svg>
