<svg width="309" height="63" viewBox="0 0 309 63" fill="none" xmlns="http://www.w3.org/2000/svg">
<g clip-path="url(#clip0_2070_759)">
<path d="M142.33 0V45.34H156.38V0H142.33ZM48.39 0H14.05H0V43.23H14.05V34.08H48.38C53.87 28.59 56.95 25.51 62.43 20.03V0H48.38H48.39ZM48.39 20.03H14.05V14.06H48.38V20.03H48.39ZM87.45 0.37H72.83V45.35H131.95V30.73H87.45V15H131.95V10.18C128.12 6.35 125.98 4.21 122.15 0.38H87.45V0.37Z" fill="url(#paint0_linear_2070_759)"/>
<path d="M186.48 6.36L184.33 8.55H176.24V13.01H173.75V0.369995H184.33L186.48 2.52V6.37V6.36ZM183.29 6.06C183.43 5.93 183.57 5.79 183.71 5.64C183.85 5.49 183.94 5.39 184 5.33V3.54L183.31 2.85H176.25V6.05H183.29V6.06Z" fill="white"/>
<path d="M201.51 9.05V13.01H199.02V10.08L197.52 8.54H191.18V13H188.69V0.369995H199.27L201.42 2.52V5.7L199.8 7.33L201.52 9.06L201.51 9.05ZM197.52 6.06L198.93 4.65V3.54999L198.24 2.85999H191.18V6.06H197.52Z" fill="white"/>
<path d="M216.72 3.24V13.01H206.86L203.99 10.14V0.369995H213.85L216.72 3.24ZM207.89 10.52H214.23V4.27L212.82 2.85999H206.48V9.10999L207.89 10.52Z" fill="white"/>
<path d="M232.16 6.36L230.01 8.55H221.92V13.01H219.43V0.369995H230.01L232.16 2.52V6.37V6.36ZM228.97 6.06C229.11 5.93 229.25 5.79 229.39 5.64C229.53 5.49 229.62 5.39 229.68 5.33V3.54L228.99 2.85H221.93V6.05H228.97V6.06Z" fill="white"/>
<path d="M246.96 3.24V13.01H237.1L234.23 10.14V0.369995H244.09L246.96 3.24ZM238.12 10.52H244.46V4.27L243.05 2.85999H236.71V9.10999L238.12 10.52Z" fill="white"/>
<path d="M262.2 0.369995V3.81999H259.71V2.85999H253.37L251.96 4.27V6.06H262.2V10.86L260.05 13.01H249.47V10.52H259.02L259.71 9.83V8.55H249.47V3.24L252.34 0.369995H262.2Z" fill="white"/>
<path d="M276.79 0.369995V3.81999H274.3V2.85999H271.63V13.01H269.14V2.85999H266.47V3.81999H263.98V0.369995H276.8H276.79Z" fill="white"/>
<path d="M291.19 0.369995V13.01H288.7V8.55H281.08V13.01H278.59V3.24L281.46 0.369995H291.2H291.19ZM288.7 6.06V2.85999H282.49L281.08 4.27V6.06H288.7Z" fill="white"/>
<path d="M184.01 28.2L183.32 27.51H176.26V35.17H183.32L184.01 34.48V33.07H186.5V35.51L184.35 37.66H173.77V25.02H184.35L186.5 27.17V30.49H184.01V28.2Z" fill="white"/>
<path d="M201.67 27.9V37.67H191.81L188.94 34.8V25.03H198.8L201.67 27.9ZM192.84 35.17H199.18V28.92L197.77 27.51H191.43V33.76L192.84 35.17Z" fill="white"/>
<path d="M217.21 37.67H214.72V28.84L212.08 33.23H209.52L206.88 28.84V37.67H204.39V25.03H207.5L210.81 30.52L214.13 25.03H217.22V37.67H217.21Z" fill="white"/>
<path d="M222.43 30.71H232.62V33.2H222.43V35.17H232.62V37.66L219.94 37.64V27.87L222.81 25.02H232.62V27.51H223.84L222.43 28.9V30.71Z" fill="white"/>
<path d="M248.09 33.71V37.67H245.6V34.74L244.1 33.2H237.76V37.66H235.27V25.02H245.85L248 27.17V30.35L246.38 31.98L248.1 33.71H248.09ZM244.1 30.71L245.51 29.3V28.2L244.82 27.51H237.76V30.71H244.1Z" fill="white"/>
<path d="M260.97 28.2L260.28 27.51H253.22V35.17H260.28L260.97 34.48V33.07H263.46V35.51L261.31 37.66H250.73V25.02H261.31L263.46 27.17V30.49H260.97V28.2Z" fill="white"/>
<path d="M278.04 25.02V27.51H272.98V35.17H278.04V37.66H265.42V35.17H270.5V27.51H265.42V25.02H278.04Z" fill="white"/>
<path d="M292.74 25.02V37.66H290.25V33.2H282.63V37.66H280.14V27.89L283.01 25.02H292.75H292.74ZM290.25 30.71V27.51H284.04L282.63 28.92V30.71H290.25Z" fill="white"/>
<path d="M308.29 33.08V37.78H298.34L295.47 34.91V25.03H297.96V33.88L299.37 35.27H305.8V33.08H308.29Z" fill="white"/>
<path d="M185.74 49.68V52.17H180.68V59.83H185.74V62.32H173.12V59.83H178.2V52.17H173.12V49.68H185.74Z" fill="white"/>
<path d="M200.81 49.68V62.32H196.55L190.88 52.17H190.48V62.32H187.99V49.68H192.34L198.01 59.83H198.32V49.68H200.81Z" fill="white"/>
<path d="M216.21 49.68V52.17H207.43L206.02 53.58V55.37H216.21V57.86H206.02V62.32H203.53V52.55L206.4 49.68H216.21Z" fill="white"/>
<path d="M231.01 49.68V62.32H228.52V57.86H220.9V62.32H218.41V52.55L221.28 49.68H231.02H231.01ZM228.52 55.37V52.17H222.31L220.9 53.58V55.37H228.52Z" fill="white"/>
<path d="M246.56 57.74V62.44H236.61L233.74 59.57V49.69H236.23V58.54L237.64 59.93H244.07V57.74H246.56Z" fill="white"/>
<path d="M260.63 49.68V52.17H255.57V59.83H260.63V62.32H248.01V59.83H253.09V52.17H248.01V49.68H260.63Z" fill="white"/>
<path d="M275.29 49.68V57.05L271.21 62.32H266.55L262.47 57.05V49.68H264.96V56.2L267.78 59.83H270L272.8 56.2V49.68H275.29Z" fill="white"/>
<path d="M280.12 55.37H290.31V57.86H280.12V59.83H290.31V62.32L277.63 62.3V52.53L280.5 49.68H290.31V52.17H281.53L280.12 53.56V55.37Z" fill="white"/>
<path d="M305.64 57.74V62.44H295.69L292.82 59.57V49.69H295.31V58.54L296.72 59.93H303.15V57.74H305.64Z" fill="white"/>
<path d="M257.755 46.2616L255.902 44.4089L252.487 47.8243L254.34 49.6769L257.755 46.2616Z" fill="white"/>
</g>
<defs>
<linearGradient id="paint0_linear_2070_759" x1="0" y1="22.67" x2="156.39" y2="22.67" gradientUnits="userSpaceOnUse">
<stop stop-color="#FF1AFF"/>
<stop offset="0.47" stop-color="#8800FF"/>
<stop offset="1" stop-color="#00B3FF"/>
</linearGradient>
<clipPath id="clip0_2070_759">
<rect width="308.29" height="62.43" fill="white"/>
</clipPath>
</defs>
</svg>
