<svg width="374" height="62" viewBox="0 0 374 62" fill="none" xmlns="http://www.w3.org/2000/svg">
<g clip-path="url(#clip0_4068_181)">
<path d="M194.773 0V61.9863H214V0H194.773ZM66.2198 0H19.2269H0V59.1017H19.2269V46.5923H66.2062L85.433 27.3839V0H66.2062H66.2198ZM66.2198 27.3839H19.2269V19.2221H66.2062V27.3839H66.2198ZM119.672 0.505843H99.665V62H180.568V42.0123H119.672V20.5072H180.568V13.9175C175.327 8.68137 172.399 5.75568 167.158 0.519515H119.672V0.505843Z" fill="url(#paint0_linear_4068_181)"/>
<path d="M243.359 6.36012L241.209 8.55012H233.119V13.0101H230.629V0.370117H241.209L243.359 2.52012V6.37012V6.36012ZM240.169 6.06012C240.309 5.93012 240.449 5.79012 240.589 5.64012C240.729 5.49012 240.819 5.39012 240.879 5.33012V3.54012L240.189 2.85012H233.129V6.05012H240.169V6.06012Z" fill="white"/>
<path d="M258.39 9.05012V13.0101H255.9V10.0801L254.4 8.54012H248.06V13.0001H245.57V0.370117H256.15L258.3 2.52012V5.70012L256.68 7.33012L258.4 9.06012L258.39 9.05012ZM254.4 6.06012L255.81 4.65012V3.55012L255.12 2.86012H248.06V6.06012H254.4Z" fill="white"/>
<path d="M273.601 3.24012V13.0101H263.741L260.871 10.1401V0.370117H270.731L273.601 3.24012ZM264.771 10.5201H271.111V4.27012L269.701 2.86012H263.361V9.11012L264.771 10.5201Z" fill="white"/>
<path d="M289.039 6.36012L286.889 8.55012H278.799V13.0101H276.309V0.370117H286.889L289.039 2.52012V6.37012V6.36012ZM285.849 6.06012C285.989 5.93012 286.129 5.79012 286.269 5.64012C286.409 5.49012 286.499 5.39012 286.559 5.33012V3.54012L285.869 2.85012H278.809V6.05012H285.849V6.06012Z" fill="white"/>
<path d="M303.839 3.24012V13.0101H293.979L291.109 10.1401V0.370117H300.969L303.839 3.24012ZM294.999 10.5201H301.339V4.27012L299.929 2.86012H293.589V9.11012L294.999 10.5201Z" fill="white"/>
<path d="M319.082 0.370117V3.82012H316.592V2.86012H310.252L308.842 4.27012V6.06012H319.082V10.8601L316.932 13.0101H306.352V10.5201H315.902L316.592 9.83012V8.55012H306.352V3.24012L309.222 0.370117H319.082Z" fill="white"/>
<path d="M333.669 0.370117V3.82012H331.179V2.86012H328.509V13.0101H326.019V2.86012H323.349V3.82012H320.859V0.370117H333.679H333.669Z" fill="white"/>
<path d="M348.069 0.370117V13.0101H345.579V8.55012H337.959V13.0101H335.469V3.24012L338.339 0.370117H348.079H348.069ZM345.579 6.06012V2.86012H339.369L337.959 4.27012V6.06012H345.579Z" fill="white"/>
<path d="M240.888 28.2005L240.198 27.5105H233.138V35.1705H240.198L240.888 34.4805V33.0705H243.378V35.5105L241.228 37.6605H230.648V25.0205H241.228L243.378 27.1705V30.4905H240.888V28.2005Z" fill="white"/>
<path d="M258.55 27.9003V37.6703H248.69L245.82 34.8003V25.0303H255.68L258.55 27.9003ZM249.72 35.1703H256.06V28.9203L254.65 27.5103H248.31V33.7603L249.72 35.1703Z" fill="white"/>
<path d="M274.09 37.6703H271.6V28.8403L268.96 33.2303H266.4L263.76 28.8403V37.6703H261.27V25.0303H264.38L267.69 30.5203L271.01 25.0303H274.1V37.6703H274.09Z" fill="white"/>
<path d="M279.31 30.7105H289.5V33.2005H279.31V35.1705H289.5V37.6605L276.82 37.6405V27.8705L279.69 25.0205H289.5V27.5105H280.72L279.31 28.9005V30.7105Z" fill="white"/>
<path d="M304.968 33.7105V37.6705H302.478V34.7405L300.978 33.2005H294.638V37.6605H292.148V25.0205H302.728L304.878 27.1705V30.3505L303.258 31.9805L304.978 33.7105H304.968ZM300.978 30.7105L302.388 29.3005V28.2005L301.698 27.5105H294.638V30.7105H300.978Z" fill="white"/>
<path d="M317.849 28.2005L317.159 27.5105H310.099V35.1705H317.159L317.849 34.4805V33.0705H320.339V35.5105L318.189 37.6605H307.609V25.0205H318.189L320.339 27.1705V30.4905H317.849V28.2005Z" fill="white"/>
<path d="M334.921 25.0205V27.5105H329.861V35.1705H334.921V37.6605H322.301V35.1705H327.381V27.5105H322.301V25.0205H334.921Z" fill="white"/>
<path d="M349.62 25.0205V37.6605H347.13V33.2005H339.51V37.6605H337.02V27.8905L339.89 25.0205H349.63H349.62ZM347.13 30.7105V27.5105H340.92L339.51 28.9205V30.7105H347.13Z" fill="white"/>
<path d="M365.172 33.0803V37.7803H355.222L352.352 34.9103V25.0303H354.842V33.8803L356.252 35.2703H362.682V33.0803H365.172Z" fill="white"/>
<path d="M242.62 49.6797V52.1697H237.56V59.8297H242.62V62.3197H230V59.8297H235.08V52.1697H230V49.6797H242.62Z" fill="white"/>
<path d="M257.691 49.6797V62.3197H253.431L247.761 52.1697H247.361V62.3197H244.871V49.6797H249.221L254.891 59.8297H255.201V49.6797H257.691Z" fill="white"/>
<path d="M273.09 49.6797V52.1697H264.31L262.9 53.5797V55.3697H273.09V57.8597H262.9V62.3197H260.41V52.5497L263.28 49.6797H273.09Z" fill="white"/>
<path d="M287.889 49.6797V62.3197H285.399V57.8597H277.779V62.3197H275.289V52.5497L278.159 49.6797H287.899H287.889ZM285.399 55.3697V52.1697H279.189L277.779 53.5797V55.3697H285.399Z" fill="white"/>
<path d="M303.441 57.7404V62.4404H293.491L290.621 59.5704V49.6904H293.111V58.5404L294.521 59.9304H300.951V57.7404H303.441Z" fill="white"/>
<path d="M317.511 49.6797V52.1697H312.451V59.8297H317.511V62.3197H304.891V59.8297H309.971V52.1697H304.891V49.6797H317.511Z" fill="white"/>
<path d="M332.172 49.6797V57.0497L328.092 62.3197H323.432L319.352 57.0497V49.6797H321.842V56.1997L324.662 59.8297H326.882L329.682 56.1997V49.6797H332.172Z" fill="white"/>
<path d="M337.002 55.3697H347.192V57.8597H337.002V59.8297H347.192V62.3197L334.512 62.2997V52.5297L337.382 49.6797H347.192V52.1697H338.412L337.002 53.5597V55.3697Z" fill="white"/>
<path d="M362.519 57.7404V62.4404H352.569L349.699 59.5704V49.6904H352.189V58.5404L353.599 59.9304H360.029V57.7404H362.519Z" fill="white"/>
<path d="M275.905 45.9434L273.922 44.1035L270.266 47.4953L272.249 49.3352L275.905 45.9434Z" fill="white"/>
</g>
<defs>
<linearGradient id="paint0_linear_4068_181" x1="0" y1="30.9932" x2="214.014" y2="30.9932" gradientUnits="userSpaceOnUse">
<stop stop-color="#FF1AFF"/>
<stop offset="0.47" stop-color="#8800FF"/>
<stop offset="1" stop-color="#00B3FF"/>
</linearGradient>
<clipPath id="clip0_4068_181">
<rect width="374" height="62" fill="white"/>
</clipPath>
</defs>
</svg>
